<svg xmlns="http://www.w3.org/2000/svg" xmlns:xlink="http://www.w3.org/1999/xlink" width="1080" zoomAndPan="magnify" viewBox="0 0 810 809.999993" height="1080" preserveAspectRatio="xMidYMid meet" version="1.0"><defs><g/></defs><g fill="#ff8d55" fill-opacity="0.4"><g transform="translate(87.40579, 370.349473)"><g><path d="M 10.113281 -115.578125 L 31.785156 -115.578125 L 31.785156 -0.433594 L 10.113281 -0.433594 Z M 10.113281 -115.578125 "/></g></g></g><g fill="#ff8d55" fill-opacity="0.4"><g transform="translate(129.301738, 370.349473)"><g><path d="M 127.570312 -67.46875 L 73.679688 -67.46875 L 73.679688 -45.363281 L 102.285156 -45.363281 C 97.808594 -31.0625 85.382812 -20.660156 69.203125 -20.660156 C 48.832031 -20.660156 34.382812 -37.273438 34.382812 -57.644531 C 34.382812 -78.015625 48.832031 -94.628906 69.203125 -94.628906 C 76.425781 -94.628906 82.925781 -92.605469 88.128906 -88.996094 L 104.308594 -105.175781 C 94.484375 -112.398438 82.347656 -116.734375 69.203125 -116.734375 C 36.550781 -116.734375 10.113281 -90.296875 10.113281 -57.644531 C 10.113281 -24.992188 36.550781 1.445312 69.203125 1.445312 C 101.851562 1.445312 128.292969 -24.992188 128.292969 -57.644531 C 128.292969 -60.96875 128.003906 -64.289062 127.570312 -67.46875 Z M 127.570312 -67.46875 "/></g></g></g><g fill="#ff8d55" fill-opacity="0.4"><g transform="translate(267.702824, 370.349473)"><g><path d="M 31.640625 -21.527344 L 31.640625 -115.578125 L 10.113281 -115.578125 L 10.113281 0 L 77.003906 0 L 77.003906 -21.527344 Z M 31.640625 -21.527344 "/></g></g></g><g fill="#ff8d55" fill-opacity="0.4"><g transform="translate(354.817489, 370.349473)"><g><path d="M 77.148438 -94.195312 L 77.148438 -115.722656 L 10.113281 -115.722656 L 10.113281 0 L 77.148438 0 L 77.148438 -21.527344 L 31.785156 -21.527344 L 31.785156 -47.242188 L 58.800781 -47.242188 L 58.800781 -68.769531 L 31.785156 -68.769531 L 31.785156 -94.195312 Z M 77.148438 -94.195312 "/></g></g></g><g fill="#ff8d55" fill-opacity="0.4"><g transform="translate(442.076625, 370.349473)"><g><path d="M 58.078125 1.445312 L 60.679688 1.445312 C 85.527344 1.300781 99.6875 -14.878906 100.699219 -30.917969 C 101.851562 -47.675781 89.140625 -66.457031 58.511719 -70.359375 L 58.222656 -70.359375 C 47.097656 -71.660156 35.539062 -77.148438 36.117188 -85.238281 C 36.550781 -91.019531 45.21875 -96.363281 60.96875 -95.640625 L 61.402344 -95.640625 C 70.070312 -95.640625 80.472656 -91.449219 85.816406 -87.550781 L 98.242188 -104.886719 C 90.007812 -110.808594 75.558594 -116.878906 61.691406 -116.878906 C 31.0625 -118.46875 16.179688 -102.863281 14.878906 -86.972656 C 14.160156 -77.726562 18.058594 -68.625 25.570312 -61.691406 C 32.941406 -54.898438 43.484375 -50.566406 55.910156 -49.265625 C 72.8125 -46.953125 79.894531 -39.152344 79.460938 -32.363281 C 79.027344 -26.148438 72.378906 -19.9375 60.390625 -19.9375 L 59.667969 -19.9375 C 59.523438 -19.9375 43.773438 -19.070312 34.09375 -27.015625 C 31.640625 -28.894531 29.617188 -31.207031 27.738281 -33.949219 L 10.113281 -21.960938 C 13.003906 -17.625 16.613281 -13.726562 20.660156 -10.402344 C 33.804688 0.289062 51.144531 1.445312 58.078125 1.445312 Z M 58.078125 1.445312 "/></g></g></g><g fill="#ff8d55" fill-opacity="0.4"><g transform="translate(552.884175, 370.349473)"><g><path d="M 10.113281 -115.578125 L 31.785156 -115.578125 L 31.785156 -0.433594 L 10.113281 -0.433594 Z M 10.113281 -115.578125 "/></g></g></g><g fill="#ff8d55" fill-opacity="0.4"><g transform="translate(594.780123, 370.349473)"><g><path d="M 78.304688 0 L 100.84375 0 L 66.890625 -115.289062 L 66.890625 -115.578125 L 44.207031 -115.578125 L 10.113281 0 L 32.796875 0 L 41.320312 -28.75 L 69.78125 -28.75 Z M 47.675781 -50.277344 L 55.621094 -77.148438 L 63.421875 -50.277344 Z M 47.675781 -50.277344 "/></g></g></g><g fill="#e2a165" fill-opacity="1"><g transform="translate(95.835936, 367.113443)"><g><path d="M 10.113281 -115.578125 L 31.785156 -115.578125 L 31.785156 -0.433594 L 10.113281 -0.433594 Z M 10.113281 -115.578125 "/></g></g></g><g fill="#e2a165" fill-opacity="1"><g transform="translate(137.731884, 367.113443)"><g><path d="M 127.570312 -67.46875 L 73.679688 -67.46875 L 73.679688 -45.363281 L 102.285156 -45.363281 C 97.808594 -31.0625 85.382812 -20.660156 69.203125 -20.660156 C 48.832031 -20.660156 34.382812 -37.273438 34.382812 -57.644531 C 34.382812 -78.015625 48.832031 -94.628906 69.203125 -94.628906 C 76.425781 -94.628906 82.925781 -92.605469 88.128906 -88.996094 L 104.308594 -105.175781 C 94.484375 -112.398438 82.347656 -116.734375 69.203125 -116.734375 C 36.550781 -116.734375 10.113281 -90.296875 10.113281 -57.644531 C 10.113281 -24.992188 36.550781 1.445312 69.203125 1.445312 C 101.851562 1.445312 128.292969 -24.992188 128.292969 -57.644531 C 128.292969 -60.96875 128.003906 -64.289062 127.570312 -67.46875 Z M 127.570312 -67.46875 "/></g></g></g><g fill="#e2a165" fill-opacity="1"><g transform="translate(276.13297, 367.113443)"><g><path d="M 31.640625 -21.527344 L 31.640625 -115.578125 L 10.113281 -115.578125 L 10.113281 0 L 77.003906 0 L 77.003906 -21.527344 Z M 31.640625 -21.527344 "/></g></g></g><g fill="#e2a165" fill-opacity="1"><g transform="translate(363.247635, 367.113443)"><g><path d="M 77.148438 -94.195312 L 77.148438 -115.722656 L 10.113281 -115.722656 L 10.113281 0 L 77.148438 0 L 77.148438 -21.527344 L 31.785156 -21.527344 L 31.785156 -47.242188 L 58.800781 -47.242188 L 58.800781 -68.769531 L 31.785156 -68.769531 L 31.785156 -94.195312 Z M 77.148438 -94.195312 "/></g></g></g><g fill="#e2a165" fill-opacity="1"><g transform="translate(450.506771, 367.113443)"><g><path d="M 58.078125 1.445312 L 60.679688 1.445312 C 85.527344 1.300781 99.6875 -14.878906 100.699219 -30.917969 C 101.851562 -47.675781 89.140625 -66.457031 58.511719 -70.359375 L 58.222656 -70.359375 C 47.097656 -71.660156 35.539062 -77.148438 36.117188 -85.238281 C 36.550781 -91.019531 45.21875 -96.363281 60.96875 -95.640625 L 61.402344 -95.640625 C 70.070312 -95.640625 80.472656 -91.449219 85.816406 -87.550781 L 98.242188 -104.886719 C 90.007812 -110.808594 75.558594 -116.878906 61.691406 -116.878906 C 31.0625 -118.46875 16.179688 -102.863281 14.878906 -86.972656 C 14.160156 -77.726562 18.058594 -68.625 25.570312 -61.691406 C 32.941406 -54.898438 43.484375 -50.566406 55.910156 -49.265625 C 72.8125 -46.953125 79.894531 -39.152344 79.460938 -32.363281 C 79.027344 -26.148438 72.378906 -19.9375 60.390625 -19.9375 L 59.667969 -19.9375 C 59.523438 -19.9375 43.773438 -19.070312 34.09375 -27.015625 C 31.640625 -28.894531 29.617188 -31.207031 27.738281 -33.949219 L 10.113281 -21.960938 C 13.003906 -17.625 16.613281 -13.726562 20.660156 -10.402344 C 33.804688 0.289062 51.144531 1.445312 58.078125 1.445312 Z M 58.078125 1.445312 "/></g></g></g><g fill="#e2a165" fill-opacity="1"><g transform="translate(561.314321, 367.113443)"><g><path d="M 10.113281 -115.578125 L 31.785156 -115.578125 L 31.785156 -0.433594 L 10.113281 -0.433594 Z M 10.113281 -115.578125 "/></g></g></g><g fill="#e2a165" fill-opacity="1"><g transform="translate(603.210269, 367.113443)"><g><path d="M 78.304688 0 L 100.84375 0 L 66.890625 -115.289062 L 66.890625 -115.578125 L 44.207031 -115.578125 L 10.113281 0 L 32.796875 0 L 41.320312 -28.75 L 69.78125 -28.75 Z M 47.675781 -50.277344 L 55.621094 -77.148438 L 63.421875 -50.277344 Z M 47.675781 -50.277344 "/></g></g></g><g fill="#ffffff" fill-opacity="0.4"><g transform="translate(192.271478, 556.699965)"><g><path d="M 11.722656 -133.972656 L 36.84375 -133.972656 L 36.84375 -0.503906 L 11.722656 -0.503906 Z M 11.722656 -133.972656 "/></g></g></g><g fill="#ffffff" fill-opacity="0.4"><g transform="translate(240.83302, 556.699965)"><g><path d="M 89.425781 -109.1875 L 89.425781 -134.140625 L 11.722656 -134.140625 L 11.722656 0 L 89.425781 0 L 89.425781 -24.953125 L 36.84375 -24.953125 L 36.84375 -54.761719 L 68.160156 -54.761719 L 68.160156 -79.714844 L 36.84375 -79.714844 L 36.84375 -109.1875 Z M 89.425781 -109.1875 "/></g></g></g><g fill="#ffffff" fill-opacity="0.4"><g transform="translate(341.974987, 556.699965)"><g><path d="M 69.5 -133.972656 L 11.722656 -133.972656 L 11.722656 0 L 36.84375 0 L 36.84375 -33.324219 L 69.5 -33.324219 C 104.835938 -33.324219 116.390625 -55.933594 116.390625 -83.734375 C 116.390625 -111.53125 103.660156 -133.972656 69.5 -133.972656 Z M 86.582031 -63.804688 C 83.734375 -60.121094 78.039062 -58.445312 69.5 -58.445312 L 36.84375 -58.445312 L 36.84375 -109.019531 L 69.5 -109.019531 C 81.890625 -109.019531 85.242188 -104.835938 86.414062 -103.496094 C 89.59375 -99.476562 91.269531 -92.441406 91.269531 -83.734375 C 91.269531 -74.523438 89.59375 -67.488281 86.582031 -63.804688 Z M 86.582031 -63.804688 "/></g></g></g><g fill="#ffffff" fill-opacity="0.4"><g transform="translate(470.076964, 556.699965)"><g><path d="M 69.5 -133.972656 L 11.722656 -133.972656 L 11.722656 0 L 36.84375 0 L 36.84375 -33.324219 L 69.5 -33.324219 C 104.835938 -33.324219 116.390625 -55.933594 116.390625 -83.734375 C 116.390625 -111.53125 103.660156 -133.972656 69.5 -133.972656 Z M 86.582031 -63.804688 C 83.734375 -60.121094 78.039062 -58.445312 69.5 -58.445312 L 36.84375 -58.445312 L 36.84375 -109.019531 L 69.5 -109.019531 C 81.890625 -109.019531 85.242188 -104.835938 86.414062 -103.496094 C 89.59375 -99.476562 91.269531 -92.441406 91.269531 -83.734375 C 91.269531 -74.523438 89.59375 -67.488281 86.582031 -63.804688 Z M 86.582031 -63.804688 "/></g></g></g><g fill="#000000" fill-opacity="1"><g transform="translate(202.043303, 552.948909)"><g><path d="M 11.722656 -133.972656 L 36.84375 -133.972656 L 36.84375 -0.503906 L 11.722656 -0.503906 Z M 11.722656 -133.972656 "/></g></g></g><g fill="#000000" fill-opacity="1"><g transform="translate(250.604845, 552.948909)"><g><path d="M 89.425781 -109.1875 L 89.425781 -134.140625 L 11.722656 -134.140625 L 11.722656 0 L 89.425781 0 L 89.425781 -24.953125 L 36.84375 -24.953125 L 36.84375 -54.761719 L 68.160156 -54.761719 L 68.160156 -79.714844 L 36.84375 -79.714844 L 36.84375 -109.1875 Z M 89.425781 -109.1875 "/></g></g></g><g fill="#000000" fill-opacity="1"><g transform="translate(351.746813, 552.948909)"><g><path d="M 69.5 -133.972656 L 11.722656 -133.972656 L 11.722656 0 L 36.84375 0 L 36.84375 -33.324219 L 69.5 -33.324219 C 104.835938 -33.324219 116.390625 -55.933594 116.390625 -83.734375 C 116.390625 -111.53125 103.660156 -133.972656 69.5 -133.972656 Z M 86.582031 -63.804688 C 83.734375 -60.121094 78.039062 -58.445312 69.5 -58.445312 L 36.84375 -58.445312 L 36.84375 -109.019531 L 69.5 -109.019531 C 81.890625 -109.019531 85.242188 -104.835938 86.414062 -103.496094 C 89.59375 -99.476562 91.269531 -92.441406 91.269531 -83.734375 C 91.269531 -74.523438 89.59375 -67.488281 86.582031 -63.804688 Z M 86.582031 -63.804688 "/></g></g></g><g fill="#000000" fill-opacity="1"><g transform="translate(479.848789, 552.948909)"><g><path d="M 69.5 -133.972656 L 11.722656 -133.972656 L 11.722656 0 L 36.84375 0 L 36.84375 -33.324219 L 69.5 -33.324219 C 104.835938 -33.324219 116.390625 -55.933594 116.390625 -83.734375 C 116.390625 -111.53125 103.660156 -133.972656 69.5 -133.972656 Z M 86.582031 -63.804688 C 83.734375 -60.121094 78.039062 -58.445312 69.5 -58.445312 L 36.84375 -58.445312 L 36.84375 -109.019531 L 69.5 -109.019531 C 81.890625 -109.019531 85.242188 -104.835938 86.414062 -103.496094 C 89.59375 -99.476562 91.269531 -92.441406 91.269531 -83.734375 C 91.269531 -74.523438 89.59375 -67.488281 86.582031 -63.804688 Z M 86.582031 -63.804688 "/></g></g></g></svg>