<svg version="1.1" id="Layer_1" xmlns="http://www.w3.org/2000/svg" xmlns:xlink="http://www.w3.org/1999/xlink" x="0px" y="0px"
	 width="100%" viewBox="0 0 700 700" enable-background="new 0 0 700 700" xml:space="preserve">
<path fill="#FFFFFF" opacity="1.000000" stroke="none" 
	d="
M701.000000,256.000000 
	C701.000000,404.666656 701.000000,552.833313 701.000000,701.000000 
	C467.666656,701.000000 234.333328,701.000000 1.000000,701.000000 
	C1.000000,467.666656 1.000000,234.333328 1.000000,1.000000 
	C234.333328,1.000000 467.666656,1.000000 701.000000,1.000000 
	C701.000000,85.833336 701.000000,170.666672 701.000000,256.000000 
M694.000366,321.500000 
	C694.000366,216.082733 694.000366,110.665482 694.000366,5.303126 
	C463.011749,5.303126 232.630386,5.303126 2.303157,5.303126 
	C2.303157,235.988297 2.303157,466.369659 2.303157,696.696716 
	C232.988358,696.696716 463.369720,696.696716 694.000366,696.696716 
	C694.000366,571.762146 694.000366,447.131073 694.000366,321.500000 
z"/>
<path fill="#E20718" opacity="1.000000" stroke="none" 
	d="
M694.000366,322.000000 
	C694.000366,447.131073 694.000366,571.762146 694.000366,696.696716 
	C463.369720,696.696716 232.988358,696.696716 2.303157,696.696716 
	C2.303157,466.369659 2.303157,235.988297 2.303157,5.303126 
	C232.630386,5.303126 463.011749,5.303126 694.000366,5.303126 
	C694.000366,110.665482 694.000366,216.082733 694.000366,322.000000 
M450.957092,117.045998 
	C450.957092,117.045998 450.972412,117.147781 450.730560,116.467377 
	C449.691681,116.048492 448.652802,115.629616 446.958252,115.045189 
	C425.065186,101.972748 401.333923,95.850975 375.905182,97.063004 
	C330.497223,99.227303 295.475891,119.350197 271.899078,158.511871 
	C269.909943,161.815872 267.809601,162.962631 264.088989,163.158401 
	C243.951782,164.217941 225.314911,170.011322 209.803940,183.228928 
	C182.590897,206.418350 173.052841,236.601501 178.421127,271.174225 
	C183.145432,301.599548 197.735825,325.884644 227.284256,338.883636 
	C227.698273,339.065765 228.005600,339.490417 228.591171,340.001160 
	C227.632965,341.745667 226.700134,343.468689 225.744705,345.179108 
	C221.222061,353.275787 217.930069,361.042084 218.912231,371.269653 
	C220.333633,386.071411 219.048431,401.172455 218.413895,416.124420 
	C216.930939,451.068237 214.511749,485.971069 208.000351,520.379700 
	C203.579361,543.741760 198.005814,566.890808 192.635101,590.062683 
	C191.819809,593.580200 192.894135,594.747192 195.664841,596.038696 
	C204.848862,600.319458 213.947098,604.784241 223.444305,609.741394 
	C226.920792,611.185669 230.397278,612.629883 234.248581,614.636047 
	C235.833252,615.397400 237.417923,616.158752 239.783844,617.006287 
	C240.824783,617.074951 241.865738,617.143616 243.094894,617.909302 
	C251.600647,619.598999 260.056366,622.369629 268.622009,622.766113 
	C290.261963,623.767639 310.658447,618.010254 330.165527,608.926147 
	C361.779205,594.204407 388.279236,572.355591 412.979431,548.300903 
	C436.558075,525.338440 460.223633,502.414703 480.955139,476.699036 
	C493.913269,460.625671 506.279694,444.199219 513.971375,424.871246 
	C520.450073,408.591400 522.968445,391.904053 516.475220,374.875214 
	C515.142029,371.378876 513.786377,367.891144 512.161987,363.675232 
	C514.215698,363.113831 516.169495,362.319946 518.190857,362.067963 
	C535.576965,359.900421 550.908203,353.164459 562.907227,340.349304 
	C573.758362,328.760132 579.280457,314.604614 581.202148,298.721436 
	C583.418518,280.401794 580.501709,263.275391 571.113403,247.510605 
	C563.747498,235.141769 553.725098,225.375275 540.000000,220.000000 
	C540.000000,220.000000 540.000000,220.000626 539.803894,219.558990 
	C539.609314,219.278656 539.343750,219.110016 538.284485,218.939468 
	C535.781189,217.988464 533.277893,217.037445 530.148926,215.938721 
	C528.387512,214.765732 526.626160,213.592758 524.972351,211.617233 
	C524.982361,211.077957 524.992432,210.538666 525.017456,209.168869 
	C517.839172,173.709305 500.157501,145.326401 468.534576,125.936653 
	C468.534576,125.936653 468.064392,125.894913 467.940430,125.279694 
	C467.293213,124.856438 466.645996,124.433182 465.414459,123.921646 
	C464.935547,123.614929 464.456665,123.308205 463.660248,122.504227 
	C463.107788,122.339607 462.555328,122.174980 461.311188,121.884789 
	C458.570282,120.564934 455.829407,119.245079 452.675629,117.446167 
	C452.070404,117.324150 451.465179,117.202133 450.957092,117.045998 
z"/>
<path fill="#FEFDFC" opacity="1.000000" stroke="none" 
	d="
M524.864746,212.419785 
	C526.626160,213.592758 528.387512,214.765732 530.644897,216.299652 
	C545.180664,226.703735 554.858765,240.051117 558.691895,256.786957 
	C564.992920,284.297668 561.168396,309.931610 541.888489,331.912537 
	C541.943787,331.944519 541.879761,331.833954 541.570679,331.962158 
	C535.328125,336.305664 529.878052,341.642059 523.342224,344.460480 
	C514.613525,348.224487 505.052765,350.072632 495.824554,352.654999 
	C493.557373,353.289429 490.674377,353.255920 492.651642,356.882416 
	C502.651489,375.223297 500.925751,393.952637 494.317017,413.096436 
	C493.926056,414.143890 493.945984,415.011658 493.627838,415.729584 
	C484.434723,436.475372 471.489441,454.740448 456.617554,471.743195 
	C453.473602,475.337646 450.566925,479.139648 447.368622,482.885071 
	C446.948242,483.066742 446.835663,483.276611 446.539917,483.719360 
	C445.830627,484.446228 445.430084,485.007538 444.788574,485.699524 
	C443.985718,486.535065 443.423828,487.239990 442.626312,488.045837 
	C442.105072,488.566071 441.819427,488.985291 441.522278,489.459381 
	C441.510803,489.514252 441.403717,489.547455 441.167664,489.676331 
	C440.467468,490.343231 440.003265,490.881256 439.499115,491.477570 
	C439.459137,491.535858 439.351471,491.627441 439.208984,491.682373 
	C439.066498,491.737305 439.002319,492.035858 438.747620,492.143860 
	C438.061493,492.842834 437.630035,493.433777 437.001648,494.113495 
	C436.804688,494.202271 436.646790,494.604462 436.751526,494.669189 
	C436.856262,494.733917 436.653625,494.617828 436.411743,494.715210 
	C435.982880,495.097351 435.795929,495.382080 435.675476,495.706604 
	C435.741974,495.746399 435.710815,495.594543 435.421326,495.721497 
	C434.880585,496.179962 434.629333,496.511475 434.228027,496.874237 
	C434.077972,496.905487 433.998932,497.201660 433.752502,497.315796 
	C433.227203,497.884003 432.948303,498.338043 432.742096,498.811127 
	C432.814758,498.830170 432.773590,498.685669 432.518311,498.792450 
	C432.083160,499.212341 431.903290,499.525482 431.782043,499.850647 
	C431.840607,499.862640 431.798462,499.750702 431.510223,499.866699 
	C430.701843,500.613892 430.181702,501.245117 429.458832,501.920044 
	C428.992065,502.121887 428.865112,502.354736 428.564514,502.806702 
	C413.514282,517.671387 398.774719,532.391663 383.807617,547.177490 
	C383.285156,547.411499 383.109344,547.663147 382.930725,548.017456 
	C382.808838,548.036865 382.695984,548.256470 382.376770,548.414551 
	C353.330139,574.522339 322.668762,597.347473 284.556213,608.792236 
	C282.357788,609.250366 280.502411,609.580017 278.665680,609.992737 
	C260.069977,614.170471 241.539230,614.103699 223.078232,609.178467 
	C213.947098,604.784241 204.848862,600.319458 195.664841,596.038696 
	C192.894135,594.747192 191.819809,593.580200 192.635101,590.062683 
	C198.005814,566.890808 203.579361,543.741760 208.000351,520.379700 
	C214.511749,485.971069 216.930939,451.068237 218.413895,416.124420 
	C219.048431,401.172455 220.333633,386.071411 218.912231,371.269653 
	C217.930069,361.042084 221.222061,353.275787 225.744705,345.179108 
	C226.700134,343.468689 227.632965,341.745667 228.591171,340.001160 
	C228.005600,339.490417 227.698273,339.065765 227.284256,338.883636 
	C197.735825,325.884644 183.145432,301.599548 178.421127,271.174225 
	C173.052841,236.601501 182.590897,206.418350 209.803940,183.228928 
	C225.314911,170.011322 243.951782,164.217941 264.088989,163.158401 
	C267.809601,162.962631 269.909943,161.815872 271.899078,158.511871 
	C295.475891,119.350197 330.497223,99.227303 375.905182,97.063004 
	C401.333923,95.850975 425.065186,101.972748 447.502502,115.372360 
	C449.022003,116.182281 449.997192,116.665031 450.972412,117.147781 
	C450.972412,117.147781 450.957092,117.045998 451.019135,117.312508 
	C451.410034,117.713577 451.738892,117.848137 452.260315,118.251816 
	C456.777466,121.881775 461.316650,125.002525 465.390686,128.643692 
	C486.728333,147.714142 499.004089,171.867188 504.920502,199.583649 
	C505.342560,201.560745 506.536469,204.121780 508.134033,204.962738 
	C513.525391,207.800873 519.260864,209.985367 524.864746,212.419785 
M214.959824,277.643951 
	C215.266083,278.199982 215.572342,278.755981 215.845978,279.671692 
	C215.845978,279.671692 216.082199,279.944885 216.115356,280.676331 
	C216.863495,282.331757 217.540314,284.023926 218.370926,285.636871 
	C225.840576,300.142059 237.313812,309.111176 254.063507,311.467407 
	C254.063507,311.467407 254.483429,311.561554 254.483429,311.561554 
	C254.483429,311.561554 254.863007,311.358765 255.763443,311.689209 
	C265.107483,310.853424 274.661926,310.944031 283.728149,308.884949 
	C290.813416,307.275787 297.292755,302.998932 304.009094,299.978149 
	C304.009094,299.978149 304.083801,299.956787 304.271851,300.677948 
	C307.835083,306.790527 310.451080,313.778046 315.138275,318.852417 
	C329.475464,334.373932 348.686615,340.579437 368.822693,344.045227 
	C384.252411,346.701019 399.705048,347.590912 414.700806,339.283966 
	C420.754425,335.522614 427.573273,332.577087 432.670410,327.796051 
	C439.230103,321.643250 444.409363,314.018738 450.602997,306.519958 
	C471.265503,324.226227 493.937805,327.719696 517.240601,310.862854 
	C530.730347,301.104614 535.335632,280.627899 529.539917,261.930023 
	C526.068481,251.261520 519.350098,243.459549 508.640686,238.293930 
	C499.243896,234.108673 489.404663,231.939636 479.073456,231.916733 
	C479.073456,231.916733 479.174744,231.873611 478.914276,231.059189 
	C477.536743,220.861099 476.892822,210.497162 474.632355,200.498688 
	C469.576752,178.136932 459.362976,158.620392 440.219086,144.881989 
	C437.199310,142.714920 433.533417,141.448273 430.118744,139.859772 
	C430.118744,139.859772 430.224274,139.852768 430.013184,139.346420 
	C429.678009,139.253693 429.342834,139.160965 428.663574,138.902435 
	C428.663574,138.902435 428.281708,138.895889 428.049225,138.245163 
	C427.069397,137.741974 426.089569,137.238785 424.611572,136.234161 
	C406.015381,128.846970 386.723358,127.594505 367.163269,130.403763 
	C341.033203,134.156616 319.635010,146.314178 305.041107,168.610840 
	C299.384888,177.252411 295.604553,187.121780 290.907227,196.557266 
	C276.015656,192.519348 260.736877,193.287613 245.811356,199.517166 
	C235.178543,203.955063 226.329926,210.524567 220.286240,221.283737 
	C219.859421,222.187195 219.432587,223.090652 218.479111,224.471756 
	C217.203674,227.747726 215.928253,231.023697 214.149338,234.716263 
	C214.076080,235.136475 214.002823,235.556671 213.536392,236.584641 
	C213.238647,238.492233 212.940903,240.399841 212.223724,242.636475 
	C212.095901,243.443192 211.968094,244.249893 211.570358,245.836304 
	C210.536194,256.464691 210.735489,266.956757 214.959824,277.643951 
M413.272491,350.387115 
	C413.466827,351.333160 413.553253,352.317352 413.871857,353.219513 
	C418.120667,365.249146 418.557068,377.299255 414.220612,389.414062 
	C409.009247,403.973114 401.494080,417.298737 392.145630,429.539185 
	C366.884094,462.615601 337.828339,492.145020 306.965698,519.958130 
	C304.011505,522.620483 300.995239,525.213867 297.231323,528.521667 
	C297.431824,526.701050 297.434692,526.213318 297.543701,525.750610 
	C307.174988,484.882416 315.346008,443.732147 320.322388,402.022369 
	C321.876526,388.996155 322.950226,375.800903 322.734802,362.707886 
	C322.534302,350.522827 316.575562,340.597656 304.366638,336.701996 
	C284.569092,330.384949 265.303284,334.391632 247.097107,340.630280 
	C249.075790,347.357422 251.389282,353.424072 252.550705,359.703827 
	C253.602356,365.390076 253.953720,371.337585 253.654053,377.120148 
	C251.965561,409.701965 250.580475,442.316833 247.942139,474.827148 
	C245.273972,507.705017 240.651962,540.379395 231.500595,572.203491 
	C230.386154,576.078979 231.652649,577.276733 234.946854,578.131409 
	C247.260376,581.326172 259.638733,581.461853 272.097198,579.180359 
	C292.985138,575.355225 310.599976,564.752930 327.390411,552.457947 
	C355.171478,532.114868 380.442322,508.922546 403.858582,483.768707 
	C418.931396,467.577423 433.582672,450.946991 447.613861,433.849426 
	C456.791901,422.665619 464.641876,410.342468 468.388824,396.005188 
	C473.075287,378.072937 467.856750,366.761902 451.192719,358.918152 
	C439.436890,353.384674 426.851959,351.109741 413.272491,350.387115 
z"/>
<path fill="#A01417" opacity="1.000000" stroke="none" 
	d="
M428.875183,502.662292 
	C428.865112,502.354736 428.992065,502.121887 429.826660,501.917236 
	C430.864319,501.164062 431.331421,500.457397 431.798462,499.750732 
	C431.798462,499.750702 431.840607,499.862640 432.063354,499.774963 
	C432.448578,499.353394 432.611053,499.019531 432.773560,498.685669 
	C432.773590,498.685669 432.814758,498.830170 433.032288,498.763000 
	C433.499512,498.197784 433.749237,497.699738 433.998962,497.201660 
	C433.998932,497.201660 434.077972,496.905487 434.563477,496.807281 
	C435.269592,496.337585 435.490204,495.966064 435.710815,495.594543 
	C435.710815,495.594543 435.741974,495.746399 435.971344,495.685944 
	C436.351685,495.289581 436.502655,494.953705 436.653625,494.617828 
	C436.653625,494.617828 436.856262,494.733917 436.933411,494.734558 
	C437.134064,494.715546 437.257568,494.695892 437.381104,494.676239 
	C437.320282,494.459076 437.259430,494.241882 437.198578,494.024719 
	C437.630035,493.433777 438.061493,492.842834 438.868958,492.290771 
	C439.369781,492.322571 439.494629,492.315521 439.619476,492.308472 
	C439.530151,492.081451 439.440826,491.854462 439.351471,491.627441 
	C439.351471,491.627441 439.459137,491.535858 439.871796,491.606079 
	C440.657532,490.966675 441.030640,490.257080 441.403748,489.547455 
	C441.403717,489.547455 441.510803,489.514252 441.857117,489.600433 
	C442.795898,489.127716 443.388336,488.568817 443.990967,488.002319 
	C444.001129,487.994720 444.017273,487.977234 444.232147,487.877014 
	C444.714569,487.584229 444.893341,487.329346 444.989868,487.006714 
	C444.996399,487.001282 445.007599,486.985382 445.380310,486.916534 
	C446.118256,485.749725 446.483429,484.651764 446.848633,483.553833 
	C446.835663,483.276611 446.948242,483.066742 447.742493,482.906067 
	C450.223053,481.399078 452.506622,480.206024 454.015106,478.374573 
	C466.299866,463.460297 478.977478,448.788086 488.075409,431.589569 
	C491.213318,425.657654 493.383911,419.214050 496.315948,412.830933 
	C501.820038,401.031830 503.148499,388.735260 501.411774,376.359344 
	C500.403809,369.176300 497.423645,362.270020 495.273682,355.046814 
	C506.752533,354.228149 518.029968,350.840759 528.070435,344.619263 
	C533.304626,341.375916 537.316040,336.159302 541.879761,331.833984 
	C541.879761,331.833954 541.943787,331.944519 542.244934,331.919830 
	C552.237732,325.664795 556.430420,315.534454 559.724182,305.435638 
	C563.900330,292.631439 565.206909,279.241272 563.004395,265.713226 
	C561.172363,254.460770 557.947693,243.771530 551.012695,234.502960 
	C547.376343,229.642975 543.673096,224.833115 540.000000,220.000610 
	C553.725098,225.375275 563.747498,235.141769 571.113403,247.510605 
	C580.501709,263.275391 583.418518,280.401794 581.202148,298.721436 
	C579.280457,314.604614 573.758362,328.760132 562.907227,340.349304 
	C550.908203,353.164459 535.576965,359.900421 518.190857,362.067963 
	C516.169495,362.319946 514.215698,363.113831 512.161987,363.675232 
	C513.786377,367.891144 515.142029,371.378876 516.475220,374.875214 
	C522.968445,391.904053 520.450073,408.591400 513.971375,424.871246 
	C506.279694,444.199219 493.913269,460.625671 480.955139,476.699036 
	C460.223633,502.414703 436.558075,525.338440 412.979431,548.300903 
	C388.279236,572.355591 361.779205,594.204407 330.165527,608.926147 
	C310.658447,618.010254 290.261963,623.767639 268.622009,622.766113 
	C260.056366,622.369629 251.600647,619.598999 243.104004,617.140503 
	C244.728790,615.914429 246.359650,615.016052 247.957718,615.070984 
	C259.017731,615.451233 269.952850,614.680176 280.698914,611.956177 
	C282.215759,611.571716 283.595337,610.645874 285.438477,609.977844 
	C297.355652,605.674805 309.102783,601.878235 320.304443,596.863281 
	C327.111755,593.815674 333.348145,589.248108 339.365601,584.730042 
	C353.311737,574.259155 367.002563,563.445923 380.681305,552.625305 
	C381.802979,551.738098 382.045166,549.738953 382.695984,548.256470 
	C382.695984,548.256470 382.808838,548.036865 383.168884,548.020508 
	C383.528961,548.004211 384.005859,547.995972 384.351135,547.962891 
	C385.149323,547.732910 385.707428,547.644958 386.040100,547.323669 
	C397.883575,535.882568 409.811737,524.525635 421.457428,512.885986 
	C424.398285,509.946625 426.427185,506.094818 428.875183,502.662292 
z"/>
<path fill="#A01517" opacity="1.000000" stroke="none" 
	d="
M468.998474,126.023872 
	C500.157501,145.326401 517.839172,173.709305 524.654907,209.547516 
	C520.267212,208.011093 516.126587,206.298630 512.265808,204.095627 
	C510.331238,202.991776 508.104553,201.291672 507.384491,199.351181 
	C503.366638,188.523560 500.089447,177.416260 495.931213,166.647003 
	C492.322357,157.300552 486.352936,149.310730 480.179810,141.399582 
	C476.304932,136.433655 469.912048,133.154282 468.998474,126.023872 
z"/>
<path fill="#9C1B1B" opacity="1.000000" stroke="none" 
	d="
M540.000000,220.000305 
	C543.673096,224.833115 547.376343,229.642975 551.012695,234.502960 
	C557.947693,243.771530 561.172363,254.460770 563.004395,265.713226 
	C565.206909,279.241272 563.900330,292.631439 559.724182,305.435638 
	C556.430420,315.534454 552.237732,325.664795 542.189636,331.887848 
	C561.168396,309.931610 564.992920,284.297668 558.691895,256.786957 
	C554.858765,240.051117 545.180664,226.703735 530.957703,216.373505 
	C533.277893,217.037445 535.781189,217.988464 538.755127,219.206116 
	C539.426270,219.733032 539.684387,219.908981 540.000000,220.000626 
	C540.000000,220.000626 540.000000,220.000000 540.000000,220.000305 
z"/>
<path fill="#9B1618" opacity="1.000000" stroke="none" 
	d="
M468.766541,125.980263 
	C469.912048,133.154282 476.304932,136.433655 480.179810,141.399582 
	C486.352936,149.310730 492.322357,157.300552 495.931213,166.647003 
	C500.089447,177.416260 503.366638,188.523560 507.384491,199.351181 
	C508.104553,201.291672 510.331238,202.991776 512.265808,204.095627 
	C516.126587,206.298630 520.267212,208.011093 524.647339,209.962769 
	C524.992432,210.538666 524.982361,211.077957 524.918579,212.018509 
	C519.260864,209.985367 513.525391,207.800873 508.134033,204.962738 
	C506.536469,204.121780 505.342560,201.560745 504.920502,199.583649 
	C499.004089,171.867188 486.728333,147.714142 465.390686,128.643692 
	C461.316650,125.002525 456.777466,121.881775 452.515991,118.246353 
	C452.748901,117.956261 452.918701,117.940742 453.088501,117.925232 
	C455.829407,119.245079 458.570282,120.564934 461.822083,122.190155 
	C462.881226,122.664169 463.429504,122.832825 463.977753,123.001488 
	C464.456665,123.308205 464.935547,123.614929 465.709778,124.297897 
	C466.691528,125.081070 467.377960,125.487999 468.064392,125.894913 
	C468.064392,125.894913 468.534576,125.936653 468.766541,125.980263 
z"/>
<path fill="#9B1618" opacity="1.000000" stroke="none" 
	d="
M285.038452,609.970703 
	C283.595337,610.645874 282.215759,611.571716 280.698914,611.956177 
	C269.952850,614.680176 259.017731,615.451233 247.957718,615.070984 
	C246.359650,615.016052 244.728790,615.914429 243.009888,616.791992 
	C241.865738,617.143616 240.824783,617.074951 239.332138,616.620361 
	C237.211533,615.514343 235.542648,614.794250 233.873764,614.074097 
	C230.397278,612.629883 226.920792,611.185669 223.261261,609.459961 
	C241.539230,614.103699 260.069977,614.170471 278.665680,609.992737 
	C280.502411,609.580017 282.357788,609.250366 284.588318,609.109375 
	C284.994263,609.547913 285.016357,609.759338 285.038452,609.970703 
z"/>
<path fill="#A01417" opacity="1.000000" stroke="none" 
	d="
M234.061172,614.355103 
	C235.542648,614.794250 237.211533,615.514343 238.941513,616.577332 
	C237.417923,616.158752 235.833252,615.397400 234.061172,614.355103 
z"/>
<path fill="#A01517" opacity="1.000000" stroke="none" 
	d="
M468.002411,125.587311 
	C467.377960,125.487999 466.691528,125.081070 466.001953,124.342033 
	C466.645996,124.433182 467.293213,124.856438 468.002411,125.587311 
z"/>
<path fill="#A01517" opacity="1.000000" stroke="none" 
	d="
M450.851501,116.807587 
	C449.997192,116.665031 449.022003,116.182281 447.830353,115.455139 
	C448.652802,115.629616 449.691681,116.048492 450.851501,116.807587 
z"/>
<path fill="#A01517" opacity="1.000000" stroke="none" 
	d="
M452.882080,117.685699 
	C452.918701,117.940742 452.748901,117.956261 452.323425,117.977234 
	C451.738892,117.848137 451.410034,117.713577 450.970581,117.329567 
	C451.465179,117.202133 452.070404,117.324150 452.882080,117.685699 
z"/>
<path fill="#A01517" opacity="1.000000" stroke="none" 
	d="
M463.819000,122.752853 
	C463.429504,122.832825 462.881226,122.664169 462.167908,122.252937 
	C462.555328,122.174980 463.107788,122.339607 463.819000,122.752853 
z"/>
<path fill="#A01417" opacity="1.000000" stroke="none" 
	d="
M539.901978,219.779816 
	C539.684387,219.908981 539.426270,219.733032 539.116455,219.262909 
	C539.343750,219.110016 539.609314,219.278656 539.901978,219.779816 
z"/>
<path fill="#FE7218" opacity="1.000000" stroke="none" 
	d="
M219.005737,223.994110 
	C219.432587,223.090652 219.859421,222.187195 220.893921,221.103424 
	C223.050858,219.516724 224.538559,218.034286 226.162384,216.720016 
	C229.401871,214.098068 232.716049,211.568390 235.995819,209.372192 
	C234.116531,212.542297 231.958466,215.195541 230.427155,218.171295 
	C227.709900,223.451660 222.406296,227.609680 223.164429,234.584778 
	C223.202759,234.736908 223.021332,234.992859 222.731247,235.112671 
	C218.191544,237.639664 220.459885,241.669128 220.002884,245.433777 
	C219.998764,247.223846 219.996628,248.600891 219.628662,250.051392 
	C219.610886,254.562210 219.958939,258.999573 220.330505,263.318909 
	C220.354004,263.200867 220.592239,263.235413 220.398956,263.679810 
	C220.138733,265.077332 220.071793,266.030457 220.105896,267.205231 
	C220.400513,267.704559 220.659683,267.891144 221.225388,268.135529 
	C222.595779,267.770508 224.505905,267.471130 224.716537,266.704681 
	C225.533356,263.732635 225.399643,260.475494 226.366516,257.573212 
	C228.893097,249.989029 231.835068,242.543823 234.551636,235.021622 
	C234.949173,233.920822 235.020050,232.702072 235.300659,231.470291 
	C235.359222,231.402695 235.451172,231.249252 235.849884,231.469360 
	C237.339630,231.560440 239.188431,231.759445 239.407684,231.253006 
	C242.530655,224.039047 250.338470,225.255234 255.761597,222.320389 
	C258.452576,220.864120 262.562164,222.117416 266.022919,221.974228 
	C270.923401,221.771469 273.389099,219.043732 273.661987,213.782471 
	C273.631256,213.832703 273.633209,213.714935 273.912537,213.785400 
	C274.489899,213.698700 274.787964,213.541534 275.086029,213.384369 
	C274.680725,213.250504 274.275391,213.116638 273.863037,212.632568 
	C274.030670,211.853745 274.205292,211.425156 274.693817,210.937134 
	C275.203918,209.618774 275.996887,208.014175 275.500122,207.156631 
	C272.096558,201.281052 267.282104,197.663025 259.882477,198.625443 
	C269.780365,196.252609 279.533478,196.500900 289.293335,198.616684 
	C291.823608,199.165192 294.419525,199.750809 295.352966,196.060211 
	C295.911530,197.234482 296.093964,198.352829 296.329041,199.460007 
	C296.581238,200.647766 296.490631,202.243652 297.229431,202.935837 
	C300.810272,206.290802 305.748688,208.749542 308.066956,212.761826 
	C311.084503,217.984283 317.362732,222.066574 315.555511,229.461365 
	C320.974731,230.222229 322.279572,229.291809 323.024933,224.382660 
	C323.297211,222.589066 323.593414,220.789261 324.040619,219.033524 
	C328.982300,199.631912 336.045135,181.314941 352.484558,168.502670 
	C357.562164,164.545319 363.199066,160.633942 369.221649,158.698212 
	C382.436981,154.450638 396.075592,151.528580 409.509857,147.947037 
	C412.442535,147.165192 416.328278,147.941040 417.876312,143.473892 
	C416.642853,143.336624 415.720215,143.233932 414.842773,143.106125 
	C414.888031,143.081009 414.887756,143.184509 414.876617,142.814362 
	C413.879211,141.661560 412.993195,140.404373 411.890747,140.171402 
	C403.211761,138.337387 394.554230,136.165283 385.768372,135.132202 
	C374.106903,133.760956 363.037384,137.236984 352.368988,141.525986 
	C345.334839,144.353943 338.651886,147.923981 332.816620,153.044250 
	C323.250488,161.438232 314.482788,170.518463 307.485138,181.153595 
	C305.237244,184.569946 303.879120,188.571747 302.029358,192.552673 
	C301.615509,193.197754 301.286224,193.595856 300.572937,193.995621 
	C298.793060,193.666412 297.397186,193.335541 296.002869,192.611588 
	C296.811096,189.904709 297.233246,187.352890 298.492096,185.318893 
	C303.554047,177.139908 308.527191,168.867844 314.183838,161.104233 
	C322.068756,150.282364 333.013428,142.887146 345.423615,138.630493 
	C354.900848,135.379868 365.299225,134.924103 375.044922,132.317017 
	C385.478668,129.525879 395.392059,132.216660 405.432098,133.752594 
	C412.020081,134.760468 418.485779,136.567535 425.240417,138.287033 
	C426.410278,138.670227 427.346008,138.783066 428.281708,138.895889 
	C428.281708,138.895889 428.663574,138.902435 428.975647,139.199478 
	C429.599915,139.615280 429.912079,139.734024 430.224274,139.852768 
	C430.224274,139.852768 430.118744,139.859772 430.134125,140.176758 
	C435.131775,144.194534 440.695679,147.332428 444.954620,151.733215 
	C450.767670,157.739975 455.754974,164.584381 460.741333,171.331970 
	C462.498077,173.709183 463.209595,176.858795 464.398346,179.655746 
	C464.525360,180.978500 466.311005,181.667816 466.681213,182.814255 
	C468.964111,189.883041 471.462830,196.952225 472.857635,204.219376 
	C474.471375,212.627365 474.941101,221.251053 476.155609,229.745636 
	C476.275177,230.581772 478.126953,231.170212 479.174744,231.873611 
	C479.174744,231.873611 479.073456,231.916733 479.123199,232.256714 
	C479.758575,233.049591 480.292267,233.604950 480.940826,233.933746 
	C482.219574,234.581985 483.561951,235.104630 484.878052,235.679230 
	C483.927185,236.785065 482.976318,237.890884 482.013733,239.002182 
	C482.002014,239.007645 481.986420,239.025162 481.733154,239.025055 
	C481.311615,239.039246 481.143341,239.053528 480.654755,239.055725 
	C479.907013,239.041885 479.479614,239.040176 478.824158,238.766541 
	C475.609161,237.918716 473.833679,238.799179 474.122894,242.138855 
	C474.096497,242.084183 474.206024,242.136581 473.842163,242.134888 
	C468.584839,246.628204 468.812500,247.697083 474.769470,249.841751 
	C482.581726,252.654404 487.792786,257.981781 491.219635,265.672180 
	C493.242767,270.212463 494.481628,275.719879 501.578766,276.600891 
	C507.381409,277.321259 512.102539,275.550476 515.434204,272.018524 
	C518.912109,268.331635 518.950195,262.820282 516.851074,257.929779 
	C516.461792,257.022858 514.643494,256.729370 513.257812,256.004700 
	C512.645752,255.257614 512.260498,254.658630 512.056763,253.920456 
	C511.811768,253.525253 511.385406,253.269226 510.733429,252.933655 
	C510.240509,252.469971 509.973206,252.085831 509.758942,251.300827 
	C508.858429,250.265549 507.904846,249.631134 506.648438,248.847504 
	C504.906525,247.575668 503.467438,246.453049 502.007935,245.225006 
	C501.987457,245.119553 501.908264,244.919495 502.036682,244.667068 
	C501.355347,242.271530 500.272156,240.910538 497.709229,242.960815 
	C496.936035,242.685593 496.450989,242.406860 495.966492,241.728973 
	C493.052124,239.676971 490.137177,238.024124 487.167480,236.340210 
	C491.918854,233.886826 500.953583,236.282700 504.549103,241.152267 
	C506.020630,240.383865 507.559814,239.580124 509.099030,238.776382 
	C519.350098,243.459549 526.068481,251.261520 529.213623,262.537720 
	C528.604370,265.099335 528.321289,267.053284 528.020874,269.338135 
	C527.993713,270.110870 527.983826,270.552704 527.701660,271.202759 
	C525.952087,274.274017 524.474854,277.137024 522.844727,280.294800 
	C512.541931,293.011230 498.918549,300.243622 483.636780,302.563171 
	C465.922302,305.251923 448.905518,302.175629 436.090363,286.437531 
	C430.752289,303.343414 418.289978,311.520508 404.383423,317.606659 
	C386.178192,325.574158 367.034821,329.223267 347.153351,325.937378 
	C330.498718,323.184753 315.104950,317.897827 306.274200,301.707489 
	C305.861481,300.950806 304.828125,300.532623 304.083801,299.956787 
	C304.083801,299.956787 304.009094,299.978149 304.005951,299.623657 
	C303.999725,298.842804 303.996643,298.416473 303.846741,297.642120 
	C302.171967,290.965454 300.644073,284.636810 299.053497,278.048553 
	C297.545990,278.454834 296.127563,278.795319 294.734497,279.219147 
	C283.394592,282.669067 272.207153,286.778351 260.683197,289.422729 
	C247.968384,292.340363 235.071091,292.614929 222.868347,285.688599 
	C221.138641,283.603546 219.565765,281.813568 217.916031,279.850159 
	C217.559738,279.762695 217.280289,279.848694 216.771240,279.940918 
	C216.541611,279.947113 216.082199,279.944885 216.082199,279.944885 
	C216.082199,279.944885 215.845978,279.671692 215.905258,279.112457 
	C215.974762,278.047394 215.984985,277.541565 216.252045,276.806519 
	C212.290955,262.218201 212.476334,247.933746 217.001404,233.651016 
	C217.989166,230.533310 218.354004,227.218262 219.005737,223.994110 
z"/>
<path fill="#FE9C07" opacity="1.000000" stroke="none" 
	d="
M413.640930,350.197205 
	C426.851959,351.109741 439.436890,353.384674 451.192719,358.918152 
	C467.856750,366.761902 473.075287,378.072937 468.388824,396.005188 
	C464.641876,410.342468 456.791901,422.665619 447.613861,433.849426 
	C433.582672,450.946991 418.931396,467.577423 403.858582,483.768707 
	C380.442322,508.922546 355.171478,532.114868 327.390411,552.457947 
	C310.599976,564.752930 292.985138,575.355225 272.097198,579.180359 
	C259.638733,581.461853 247.260376,581.326172 234.946854,578.131409 
	C231.652649,577.276733 230.386154,576.078979 231.500595,572.203491 
	C240.651962,540.379395 245.273972,507.705017 247.942139,474.827148 
	C250.580475,442.316833 251.965561,409.701965 253.654053,377.120148 
	C253.953720,371.337585 253.602356,365.390076 252.550705,359.703827 
	C251.389282,353.424072 249.075790,347.357422 247.097107,340.630280 
	C265.303284,334.391632 284.569092,330.384949 304.366638,336.701996 
	C316.575562,340.597656 322.534302,350.522827 322.734802,362.707886 
	C322.950226,375.800903 321.876526,388.996155 320.322388,402.022369 
	C315.346008,443.732147 307.174988,484.882416 297.543701,525.750610 
	C297.434692,526.213318 297.431824,526.701050 297.231323,528.521667 
	C300.995239,525.213867 304.011505,522.620483 306.965698,519.958130 
	C337.828339,492.145020 366.884094,462.615601 392.145630,429.539185 
	C401.494080,417.298737 409.009247,403.973114 414.220612,389.414062 
	C418.557068,377.299255 418.120667,365.249146 413.871857,353.219513 
	C413.553253,352.317352 413.466827,351.333160 413.640930,350.197205 
z"/>
<path fill="#DB661A" opacity="1.000000" stroke="none" 
	d="
M304.177826,300.317383 
	C304.828125,300.532623 305.861481,300.950806 306.274200,301.707489 
	C315.104950,317.897827 330.498718,323.184753 347.153351,325.937378 
	C367.034821,329.223267 386.178192,325.574158 404.383423,317.606659 
	C418.289978,311.520508 430.752289,303.343414 436.090363,286.437531 
	C448.905518,302.175629 465.922302,305.251923 483.636780,302.563171 
	C498.918549,300.243622 512.541931,293.011230 523.243408,280.286682 
	C525.342163,279.743134 526.889465,279.502472 528.703674,279.220276 
	C529.793701,289.850128 526.041199,298.370728 519.598633,305.794403 
	C515.664001,310.328217 510.268677,312.501373 504.790222,315.075470 
	C494.590393,319.867950 484.421143,320.140747 474.285889,317.589264 
	C468.284851,316.078522 462.133118,312.610321 457.635529,308.348267 
	C452.343994,303.333923 449.141510,302.795105 445.371063,309.192230 
	C438.945465,320.094147 430.051361,328.629639 419.615143,335.644226 
	C417.780457,336.877411 415.930450,338.087891 414.087524,339.308868 
	C399.705048,347.590912 384.252411,346.701019 368.822693,344.045227 
	C348.686615,340.579437 329.475464,334.373932 315.138275,318.852417 
	C310.451080,313.778046 307.835083,306.790527 304.177826,300.317383 
z"/>
<path fill="#F86D0E" opacity="1.000000" stroke="none" 
	d="
M295.000000,195.999390 
	C294.419525,199.750809 291.823608,199.165192 289.293335,198.616684 
	C279.533478,196.500900 269.780365,196.252609 259.882477,198.625443 
	C267.282104,197.663025 272.096558,201.281052 275.500122,207.156631 
	C275.996887,208.014175 275.203918,209.618774 274.579590,210.579025 
	C272.767639,204.203522 268.168762,202.493164 262.768951,202.090012 
	C255.186813,201.523926 248.596558,204.489243 242.206589,207.823639 
	C244.280991,205.584961 246.398941,203.707489 248.516907,201.830002 
	C243.455200,202.826599 238.767044,204.314346 236.000305,208.999695 
	C236.000000,209.000000 235.999390,209.000610 235.999390,209.000610 
	C232.716049,211.568390 229.401871,214.098068 226.162384,216.720016 
	C224.538559,218.034286 223.050858,219.516724 221.139526,220.924194 
	C226.329926,210.524567 235.178543,203.955063 245.811356,199.517166 
	C260.736877,193.287613 276.015656,192.519348 290.907227,196.557266 
	C295.604553,187.121780 299.384888,177.252411 305.041107,168.610840 
	C319.635010,146.314178 341.033203,134.156616 367.163269,130.403763 
	C386.723358,127.594505 406.015381,128.846970 424.827301,136.804565 
	C425.030762,137.588867 425.018494,137.802765 425.006256,138.016663 
	C418.485779,136.567535 412.020081,134.760468 405.432098,133.752594 
	C395.392059,132.216660 385.478668,129.525879 375.044922,132.317017 
	C365.299225,134.924103 354.900848,135.379868 345.423615,138.630493 
	C333.013428,142.887146 322.068756,150.282364 314.183838,161.104233 
	C308.527191,168.867844 303.554047,177.139908 298.492096,185.318893 
	C297.233246,187.352890 296.811096,189.904709 295.739990,192.815918 
	C295.317078,194.275345 295.158539,195.137375 295.000000,195.999390 
z"/>
<path fill="#D76311" opacity="1.000000" stroke="none" 
	d="
M414.394165,339.296417 
	C415.930450,338.087891 417.780457,336.877411 419.615143,335.644226 
	C430.051361,328.629639 438.945465,320.094147 445.371063,309.192230 
	C449.141510,302.795105 452.343994,303.333923 457.635529,308.348267 
	C462.133118,312.610321 468.284851,316.078522 474.285889,317.589264 
	C484.421143,320.140747 494.590393,319.867950 504.790222,315.075470 
	C510.268677,312.501373 515.664001,310.328217 519.598633,305.794403 
	C526.041199,298.370728 529.793701,289.850128 528.703674,279.220276 
	C526.889465,279.502472 525.342163,279.743134 523.396240,279.991882 
	C524.474854,277.137024 525.952087,274.274017 527.932312,271.065552 
	C528.302917,270.149109 528.170593,269.578186 528.038208,269.007233 
	C528.321289,267.053284 528.604370,265.099335 529.258179,262.915070 
	C535.335632,280.627899 530.730347,301.104614 517.240601,310.862854 
	C493.937805,327.719696 471.265503,324.226227 450.602997,306.519958 
	C444.409363,314.018738 439.230103,321.643250 432.670410,327.796051 
	C427.573273,332.577087 420.754425,335.522614 414.394165,339.296417 
z"/>
<path fill="#9C1B1B" opacity="1.000000" stroke="none" 
	d="
M541.570679,331.962158 
	C537.316040,336.159302 533.304626,341.375916 528.070435,344.619263 
	C518.029968,350.840759 506.752533,354.228149 495.273682,355.046814 
	C497.423645,362.270020 500.403809,369.176300 501.411774,376.359344 
	C503.148499,388.735260 501.820038,401.031830 495.958771,412.797791 
	C495.044861,412.907593 494.807648,412.877258 494.570404,412.846893 
	C500.925751,393.952637 502.651489,375.223297 492.651642,356.882416 
	C490.674377,353.255920 493.557373,353.289429 495.824554,352.654999 
	C505.052765,350.072632 514.613525,348.224487 523.342224,344.460480 
	C529.878052,341.642059 535.328125,336.305664 541.570679,331.962158 
z"/>
<path fill="#F77218" opacity="1.000000" stroke="none" 
	d="
M479.044495,231.466400 
	C478.126953,231.170212 476.275177,230.581772 476.155609,229.745636 
	C474.941101,221.251053 474.471375,212.627365 472.857635,204.219376 
	C471.462830,196.952225 468.964111,189.883041 466.681213,182.814255 
	C466.311005,181.667816 464.525360,180.978500 464.398346,179.655746 
	C463.209595,176.858795 462.498077,173.709183 460.741333,171.331970 
	C455.754974,164.584381 450.767670,157.739975 444.954620,151.733215 
	C440.695679,147.332428 435.131775,144.194534 430.157898,140.129517 
	C433.533417,141.448273 437.199310,142.714920 440.219086,144.881989 
	C459.362976,158.620392 469.576752,178.136932 474.632355,200.498688 
	C476.892822,210.497162 477.536743,220.861099 479.044495,231.466400 
z"/>
<path fill="#9C1B1B" opacity="1.000000" stroke="none" 
	d="
M285.438477,609.977844 
	C285.016357,609.759338 284.994263,609.547913 284.940063,609.019409 
	C322.668762,597.347473 353.330139,574.522339 382.376770,548.414551 
	C382.045166,549.738953 381.802979,551.738098 380.681305,552.625305 
	C367.002563,563.445923 353.311737,574.259155 339.365601,584.730042 
	C333.348145,589.248108 327.111755,593.815674 320.304443,596.863281 
	C309.102783,601.878235 297.355652,605.674805 285.438477,609.977844 
z"/>
<path fill="#D76311" opacity="1.000000" stroke="none" 
	d="
M217.992889,280.023621 
	C219.565765,281.813568 221.138641,283.603546 222.612762,285.892578 
	C223.516647,294.125977 230.242905,297.487335 235.161636,301.827942 
	C241.784653,307.672485 250.654037,309.206024 259.201172,309.849701 
	C270.403229,310.693329 281.158295,308.003479 291.414673,303.403900 
	C295.579346,301.536224 299.798981,299.791046 303.993591,297.990143 
	C303.996643,298.416473 303.999725,298.842804 304.022095,299.588318 
	C297.292755,302.998932 290.813416,307.275787 283.728149,308.884949 
	C274.661926,310.944031 265.107483,310.853424 255.152908,311.414185 
	C254.285843,311.038849 254.030212,311.041199 253.775482,311.146179 
	C237.313812,309.111176 225.840576,300.142059 218.370926,285.636871 
	C217.540314,284.023926 216.863495,282.331757 216.098785,280.310608 
	C216.082199,279.944885 216.541611,279.947113 217.018707,279.968567 
	C217.495804,279.990051 217.992889,280.023621 217.992889,280.023621 
z"/>
<path fill="#9B1618" opacity="1.000000" stroke="none" 
	d="
M494.317017,413.096436 
	C494.807648,412.877258 495.044861,412.907593 495.639221,412.971069 
	C493.383911,419.214050 491.213318,425.657654 488.075409,431.589569 
	C478.977478,448.788086 466.299866,463.460297 454.015106,478.374573 
	C452.506622,480.206024 450.223053,481.399078 447.924774,482.867004 
	C450.566925,479.139648 453.473602,475.337646 456.617554,471.743195 
	C471.489441,454.740448 484.434723,436.475372 493.627838,415.729584 
	C493.945984,415.011658 493.926056,414.143890 494.317017,413.096436 
z"/>
<path fill="#9B1618" opacity="1.000000" stroke="none" 
	d="
M428.564514,502.806702 
	C426.427185,506.094818 424.398285,509.946625 421.457428,512.885986 
	C409.811737,524.525635 397.883575,535.882568 386.040100,547.323669 
	C385.707428,547.644958 385.149323,547.732910 384.355774,547.741821 
	C384.015198,547.553894 384.035187,547.111938 384.035187,547.111938 
	C398.774719,532.391663 413.514282,517.671387 428.564514,502.806702 
z"/>
<path fill="#F86D0E" opacity="1.000000" stroke="none" 
	d="
M218.742432,224.232925 
	C218.354004,227.218262 217.989166,230.533310 217.001404,233.651016 
	C212.476334,247.933746 212.290955,262.218201 216.007050,276.792175 
	C215.505234,277.007019 215.014404,276.997925 215.014404,276.997925 
	C210.735489,266.956757 210.536194,256.464691 212.010651,245.203033 
	C212.514999,243.815643 212.579071,243.061539 212.643158,242.307434 
	C212.940903,240.399841 213.238647,238.492233 213.997879,236.080994 
	C214.523849,235.151459 214.588333,234.725555 214.652832,234.299667 
	C215.928253,231.023697 217.203674,227.747726 218.742432,224.232925 
z"/>
<path fill="#F77218" opacity="1.000000" stroke="none" 
	d="
M508.869873,238.535156 
	C507.559814,239.580124 506.020630,240.383865 504.549103,241.152267 
	C500.953583,236.282700 491.918854,233.886826 487.167480,236.340210 
	C490.137177,238.024124 493.052124,239.676971 495.570374,241.697021 
	C493.120636,241.512970 491.067566,240.961731 488.862152,240.090302 
	C486.481689,239.512314 484.253540,239.254501 482.025452,238.996704 
	C482.976318,237.890884 483.927185,236.785065 484.878052,235.679230 
	C483.561951,235.104630 482.219574,234.581985 480.940826,233.933746 
	C480.292267,233.604950 479.758575,233.049591 479.144836,232.206085 
	C489.404663,231.939636 499.243896,234.108673 508.869873,238.535156 
z"/>
<path fill="#F77218" opacity="1.000000" stroke="none" 
	d="
M425.240417,138.287033 
	C425.018494,137.802765 425.030762,137.588867 425.076385,137.055267 
	C426.089569,137.238785 427.069397,137.741974 428.165466,138.570526 
	C427.346008,138.783066 426.410278,138.670227 425.240417,138.287033 
z"/>
<path fill="#9B1618" opacity="1.000000" stroke="none" 
	d="
M446.539917,483.719360 
	C446.483429,484.651764 446.118256,485.749725 445.380432,486.680542 
	C445.017639,486.198639 445.024872,485.883789 445.029510,485.568878 
	C445.430084,485.007538 445.830627,484.446228 446.539917,483.719360 
z"/>
<path fill="#F77821" opacity="1.000000" stroke="none" 
	d="
M212.433441,242.471954 
	C212.579071,243.061539 212.514999,243.815643 212.145599,244.813171 
	C211.968094,244.249893 212.095901,243.443192 212.433441,242.471954 
z"/>
<path fill="#9B1618" opacity="1.000000" stroke="none" 
	d="
M441.167694,489.676331 
	C441.030640,490.257080 440.657532,490.966675 439.911774,491.547791 
	C440.003265,490.881256 440.467468,490.343231 441.167694,489.676331 
z"/>
<path fill="#9B1618" opacity="1.000000" stroke="none" 
	d="
M443.980774,488.009918 
	C443.388336,488.568817 442.795898,489.127716 441.868591,489.545563 
	C441.819427,488.985291 442.105072,488.566071 442.905884,488.064514 
	C443.607605,487.991394 443.794189,488.000641 443.980774,488.009918 
z"/>
<path fill="#9C1B1B" opacity="1.000000" stroke="none" 
	d="
M443.990967,488.002319 
	C443.794189,488.000641 443.607605,487.991394 443.141479,487.963531 
	C443.423828,487.239990 443.985718,486.535065 444.788574,485.699524 
	C445.024872,485.883789 445.017639,486.198639 445.007690,486.749390 
	C445.007599,486.985382 444.996399,487.001282 444.776123,487.108398 
	C444.288055,487.407013 444.108551,487.660919 444.017273,487.977234 
	C444.017273,487.977234 444.001129,487.994720 443.990967,488.002319 
z"/>
<path fill="#9B1618" opacity="1.000000" stroke="none" 
	d="
M431.510254,499.866699 
	C431.331421,500.457397 430.864319,501.164062 430.029419,501.873535 
	C430.181702,501.245117 430.701843,500.613892 431.510254,499.866699 
z"/>
<path fill="#9B1618" opacity="1.000000" stroke="none" 
	d="
M433.752533,497.315796 
	C433.749237,497.699738 433.499512,498.197784 432.959595,498.743958 
	C432.948303,498.338043 433.227203,497.884003 433.752533,497.315796 
z"/>
<path fill="#F77821" opacity="1.000000" stroke="none" 
	d="
M214.987122,277.320923 
	C215.014404,276.997925 215.505234,277.007019 215.750229,277.021362 
	C215.984985,277.541565 215.974762,278.047394 215.921570,278.932617 
	C215.572342,278.755981 215.266083,278.199982 214.987122,277.320923 
z"/>
<path fill="#9C1B1B" opacity="1.000000" stroke="none" 
	d="
M383.807617,547.177490 
	C384.035187,547.111938 384.015198,547.553894 384.010529,547.774902 
	C384.005859,547.995972 383.528961,548.004211 383.290771,548.001099 
	C383.109344,547.663147 383.285156,547.411499 383.807617,547.177490 
z"/>
<path fill="#9B1618" opacity="1.000000" stroke="none" 
	d="
M432.518311,498.792419 
	C432.611053,499.019531 432.448578,499.353394 432.004761,499.762939 
	C431.903290,499.525482 432.083160,499.212341 432.518311,498.792419 
z"/>
<path fill="#9B1618" opacity="1.000000" stroke="none" 
	d="
M435.421326,495.721497 
	C435.490204,495.966064 435.269592,496.337585 434.713531,496.776031 
	C434.629333,496.511475 434.880585,496.179962 435.421326,495.721497 
z"/>
<path fill="#9B1618" opacity="1.000000" stroke="none" 
	d="
M436.411713,494.715210 
	C436.502655,494.953705 436.351685,495.289581 435.904846,495.646149 
	C435.795929,495.382080 435.982880,495.097351 436.411713,494.715210 
z"/>
<path fill="#9B1618" opacity="1.000000" stroke="none" 
	d="
M437.001648,494.113495 
	C437.259430,494.241882 437.320282,494.459076 437.381104,494.676239 
	C437.257568,494.695892 437.134064,494.715546 436.828674,494.669830 
	C436.646790,494.604462 436.804688,494.202271 437.001648,494.113495 
z"/>
<path fill="#9B1618" opacity="1.000000" stroke="none" 
	d="
M439.208984,491.682373 
	C439.440826,491.854462 439.530151,492.081451 439.619476,492.308472 
	C439.494629,492.315521 439.369781,492.322571 439.123627,492.182739 
	C439.002319,492.035858 439.066498,491.737305 439.208984,491.682373 
z"/>
<path fill="#F77218" opacity="1.000000" stroke="none" 
	d="
M430.118713,139.599594 
	C429.912079,139.734024 429.599915,139.615280 429.147705,139.282379 
	C429.342834,139.160965 429.678009,139.253693 430.118713,139.599594 
z"/>
<path fill="#F77821" opacity="1.000000" stroke="none" 
	d="
M253.919495,311.306793 
	C254.030212,311.041199 254.285843,311.038849 254.702698,311.248962 
	C254.863007,311.358765 254.483429,311.561554 254.483429,311.561554 
	C254.483429,311.561554 254.063507,311.467407 253.919495,311.306793 
z"/>
<path fill="#F77821" opacity="1.000000" stroke="none" 
	d="
M214.401093,234.507965 
	C214.588333,234.725555 214.523849,235.151459 214.194458,235.777115 
	C214.002823,235.556671 214.076080,235.136475 214.401093,234.507965 
z"/>
<path fill="#9B1618" opacity="1.000000" stroke="none" 
	d="
M444.232147,487.877014 
	C444.108551,487.660919 444.288055,487.407013 444.769592,487.113831 
	C444.893341,487.329346 444.714569,487.584229 444.232147,487.877014 
z"/>
<path fill="#FEFBF8" opacity="1.000000" stroke="none" 
	d="
M300.956940,193.993958 
	C301.286224,193.595856 301.615509,193.197754 302.342651,192.388977 
	C310.879852,181.746185 318.229309,170.739227 327.335907,161.455978 
	C342.579193,145.916992 361.489929,137.047165 383.648376,138.059967 
	C394.117706,138.538498 404.478027,141.401749 414.887756,143.184509 
	C414.887756,143.184509 414.888031,143.081009 414.828644,143.486633 
	C413.794189,144.325592 412.858795,144.933289 411.838013,145.165619 
	C400.406433,147.767349 388.740417,149.588379 377.563354,153.010544 
	C347.794769,162.125061 330.864075,183.412460 323.068542,212.782959 
	C321.904327,217.169312 320.932526,221.606705 319.604614,227.131592 
	C318.382568,224.825424 317.849304,223.469894 317.025452,222.323151 
	C312.883820,216.558426 309.545013,209.762131 304.210510,205.446350 
	C299.547363,201.673691 297.030579,199.314987 300.956940,193.993958 
z"/>
<path fill="#DB661A" opacity="1.000000" stroke="none" 
	d="
M303.846741,297.642120 
	C299.798981,299.791046 295.579346,301.536224 291.414673,303.403900 
	C281.158295,308.003479 270.403229,310.693329 259.201172,309.849701 
	C250.654037,309.206024 241.784653,307.672485 235.161636,301.827942 
	C230.242905,297.487335 223.516647,294.125977 222.769623,286.187653 
	C235.071091,292.614929 247.968384,292.340363 260.683197,289.422729 
	C272.207153,286.778351 283.394592,282.669067 294.734497,279.219147 
	C296.127563,278.795319 297.545990,278.454834 299.053497,278.048553 
	C300.644073,284.636810 302.171967,290.965454 303.846741,297.642120 
z"/>
<path fill="#FDF8F3" opacity="1.000000" stroke="none" 
	d="
M242.250153,208.184830 
	C248.596558,204.489243 255.186813,201.523926 262.768951,202.090012 
	C268.168762,202.493164 272.767639,204.203522 274.265686,210.638458 
	C274.205292,211.425156 274.030670,211.853745 273.741882,212.795578 
	C273.627747,213.308807 273.633209,213.714935 273.633209,213.714935 
	C273.633209,213.714935 273.631256,213.832703 273.385254,213.971252 
	C270.141602,218.606949 265.680573,219.870132 260.602203,219.823730 
	C250.451660,219.730988 241.616623,222.558121 235.451172,231.249252 
	C235.451172,231.249252 235.359222,231.402695 235.033783,231.614777 
	C227.215469,241.668106 224.321075,253.251831 222.650116,265.635071 
	C221.630844,264.446533 221.111542,263.840973 220.592239,263.235413 
	C220.592239,263.235413 220.354004,263.200867 220.420853,263.143463 
	C220.487701,263.086060 220.440048,262.694794 220.716080,262.503998 
	C220.999481,261.874390 221.006851,261.435577 221.109726,260.569275 
	C221.168625,258.105621 221.132034,256.069427 221.256302,253.674103 
	C221.494888,250.536530 221.572632,247.758102 221.799866,244.566742 
	C222.306686,241.100174 222.664001,238.046524 223.021332,234.992859 
	C223.021332,234.992859 223.202759,234.736908 223.487701,234.409363 
	C228.020233,224.705124 233.917038,216.479721 241.130173,209.157532 
	C241.109268,209.127258 241.089020,209.197525 241.356339,209.107071 
	C241.826859,208.715240 242.030060,208.413879 242.212799,208.136200 
	C242.192337,208.159897 242.250153,208.184830 242.250153,208.184830 
z"/>
<path fill="#FEFBF8" opacity="1.000000" stroke="none" 
	d="
M489.014496,240.410492 
	C491.067566,240.961731 493.120636,241.512970 495.569824,242.096161 
	C496.450989,242.406860 496.936035,242.685593 497.952209,243.190582 
	C499.466064,243.932648 500.448792,244.448456 501.468994,245.102966 
	C501.506439,245.241653 501.748779,245.395325 501.748779,245.395325 
	C501.748779,245.395325 502.028381,245.330429 502.028381,245.330444 
	C503.467438,246.453049 504.906525,247.575668 506.794891,249.139908 
	C508.064728,250.288239 508.885284,250.994965 509.705872,251.701691 
	C509.973206,252.085831 510.240509,252.469971 510.813416,253.165604 
	C511.278564,253.791351 511.530670,253.985550 511.875305,254.059631 
	C512.260498,254.658630 512.645752,255.257614 513.375000,256.264587 
	C513.863342,256.796051 514.007629,256.919495 514.201904,257.281250 
	C514.402161,257.823517 514.630005,258.048859 514.979553,258.582275 
	C517.068848,266.052338 515.168030,270.993835 509.461517,273.427887 
	C503.517761,275.963135 497.279236,273.994171 494.755829,268.168610 
	C490.251862,257.770782 484.855865,248.508621 472.145081,246.911697 
	C473.040802,244.836380 473.623413,243.486481 474.206055,242.136581 
	C474.206024,242.136581 474.096497,242.084183 474.384125,242.048157 
	C475.113983,241.680115 475.556183,241.348099 476.256897,241.025848 
	C476.666321,240.952133 476.817200,240.868652 477.312469,240.836304 
	C478.100830,240.766983 478.544861,240.646484 479.436707,240.612701 
	C482.927856,240.603088 485.971191,240.506790 489.014496,240.410492 
z"/>
<path fill="#F77218" opacity="1.000000" stroke="none" 
	d="
M300.572937,193.995605 
	C297.030579,199.314987 299.547363,201.673691 304.210510,205.446350 
	C309.545013,209.762131 312.883820,216.558426 317.025452,222.323151 
	C317.849304,223.469894 318.382568,224.825424 319.604614,227.131592 
	C320.932526,221.606705 321.904327,217.169312 323.068542,212.782959 
	C330.864075,183.412460 347.794769,162.125061 377.563354,153.010544 
	C388.740417,149.588379 400.406433,147.767349 411.838013,145.165619 
	C412.858795,144.933289 413.794189,144.325592 414.783386,143.511749 
	C415.720215,143.233932 416.642853,143.336624 417.876312,143.473892 
	C416.328278,147.941040 412.442535,147.165192 409.509857,147.947037 
	C396.075592,151.528580 382.436981,154.450638 369.221649,158.698212 
	C363.199066,160.633942 357.562164,164.545319 352.484558,168.502670 
	C336.045135,181.314941 328.982300,199.631912 324.040619,219.033524 
	C323.593414,220.789261 323.297211,222.589066 323.024933,224.382660 
	C322.279572,229.291809 320.974731,230.222229 315.555511,229.461365 
	C317.362732,222.066574 311.084503,217.984283 308.066956,212.761826 
	C305.748688,208.749542 300.810272,206.290802 297.229431,202.935837 
	C296.490631,202.243652 296.581238,200.647766 296.329041,199.460007 
	C296.093964,198.352829 295.911530,197.234482 295.352966,196.060211 
	C295.158539,195.137375 295.317078,194.275345 295.738464,193.208984 
	C297.397186,193.335541 298.793060,193.666412 300.572937,193.995605 
z"/>
<path fill="#F77218" opacity="1.000000" stroke="none" 
	d="
M414.876617,142.814362 
	C404.478027,141.401749 394.117706,138.538498 383.648376,138.059967 
	C361.489929,137.047165 342.579193,145.916992 327.335907,161.455978 
	C318.229309,170.739227 310.879852,181.746185 302.427246,192.142014 
	C303.879120,188.571747 305.237244,184.569946 307.485138,181.153595 
	C314.482788,170.518463 323.250488,161.438232 332.816620,153.044250 
	C338.651886,147.923981 345.334839,144.353943 352.368988,141.525986 
	C363.037384,137.236984 374.106903,133.760956 385.768372,135.132202 
	C394.554230,136.165283 403.211761,138.337387 411.890747,140.171402 
	C412.993195,140.404373 413.879211,141.661560 414.876617,142.814362 
z"/>
<path fill="#F77218" opacity="1.000000" stroke="none" 
	d="
M514.151855,257.042908 
	C514.007629,256.919495 513.863342,256.796051 513.601868,256.412659 
	C514.643494,256.729370 516.461792,257.022858 516.851074,257.929779 
	C518.950195,262.820282 518.912109,268.331635 515.434204,272.018524 
	C512.102539,275.550476 507.381409,277.321259 501.578766,276.600891 
	C494.481628,275.719879 493.242767,270.212463 491.219635,265.672180 
	C487.792786,257.981781 482.581726,252.654404 474.769470,249.841751 
	C468.812500,247.697083 468.584839,246.628204 473.842194,242.134888 
	C473.623413,243.486481 473.040802,244.836380 472.145081,246.911697 
	C484.855865,248.508621 490.251862,257.770782 494.755829,268.168610 
	C497.279236,273.994171 503.517761,275.963135 509.461517,273.427887 
	C515.168030,270.993835 517.068848,266.052338 514.922974,258.345245 
	C514.685974,257.409332 514.462402,257.183105 514.151855,257.042908 
z"/>
<path fill="#F77218" opacity="1.000000" stroke="none" 
	d="
M235.849884,231.469360 
	C241.616623,222.558121 250.451660,219.730988 260.602203,219.823730 
	C265.680573,219.870132 270.141602,218.606949 273.416016,213.921021 
	C273.389099,219.043732 270.923401,221.771469 266.022919,221.974228 
	C262.562164,222.117416 258.452576,220.864120 255.761597,222.320389 
	C250.338470,225.255234 242.530655,224.039047 239.407684,231.253006 
	C239.188431,231.759445 237.339630,231.560440 235.849884,231.469360 
z"/>
<path fill="#F77218" opacity="1.000000" stroke="none" 
	d="
M220.398956,263.679810 
	C221.111542,263.840973 221.630844,264.446533 222.650116,265.635071 
	C224.321075,253.251831 227.215469,241.668106 234.975220,231.682373 
	C235.020050,232.702072 234.949173,233.920822 234.551636,235.021622 
	C231.835068,242.543823 228.893097,249.989029 226.366516,257.573212 
	C225.399643,260.475494 225.533356,263.732635 224.716537,266.704681 
	C224.505905,267.471130 222.595779,267.770508 221.121094,267.917114 
	C220.581284,267.276031 220.324295,267.087280 220.004868,266.983551 
	C220.071793,266.030457 220.138733,265.077332 220.398956,263.679810 
z"/>
<path fill="#F86D0E" opacity="1.000000" stroke="none" 
	d="
M241.151077,209.187820 
	C233.917038,216.479721 228.020233,224.705124 223.449371,234.257248 
	C222.406296,227.609680 227.709900,223.451660 230.427155,218.171295 
	C231.958466,215.195541 234.116531,212.542297 235.995819,209.372192 
	C235.999390,209.000610 236.000000,209.000000 236.429779,209.001343 
	C238.290054,209.064392 239.720566,209.126114 241.151077,209.187820 
z"/>
<path fill="#F86D0E" opacity="1.000000" stroke="none" 
	d="
M220.440048,262.694794 
	C220.440048,262.694794 220.487701,263.086060 220.397354,263.261475 
	C219.958939,258.999573 219.610886,254.562210 219.631744,250.427063 
	C220.365601,251.830597 220.730530,252.931931 221.095444,254.033249 
	C221.132034,256.069427 221.168625,258.105621 220.861618,260.785095 
	C220.492020,261.850555 220.466034,262.272675 220.440048,262.694794 
z"/>
<path fill="#F86D0E" opacity="1.000000" stroke="none" 
	d="
M222.731247,235.112671 
	C222.664001,238.046524 222.306686,241.100174 221.525574,244.570099 
	C220.736160,244.997833 220.370529,245.009293 220.004883,245.020752 
	C220.459885,241.669128 218.191544,237.639664 222.731247,235.112671 
z"/>
<path fill="#F77821" opacity="1.000000" stroke="none" 
	d="
M488.862152,240.090302 
	C485.971191,240.506790 482.927856,240.603088 479.438690,240.364288 
	C479.009735,239.698746 479.029541,239.368515 479.052216,239.038452 
	C479.479614,239.040176 479.907013,239.041885 480.754272,239.211121 
	C481.444916,239.260818 481.715668,239.142990 481.986420,239.025177 
	C481.986420,239.025162 482.002014,239.007645 482.013733,239.002167 
	C484.253540,239.254501 486.481689,239.512314 488.862152,240.090302 
z"/>
<path fill="#F77218" opacity="1.000000" stroke="none" 
	d="
M220.002884,245.433777 
	C220.370529,245.009293 220.736160,244.997833 221.376099,244.983017 
	C221.572632,247.758102 221.494888,250.536530 221.256302,253.674103 
	C220.730530,252.931931 220.365601,251.830597 219.997589,250.353607 
	C219.996628,248.600891 219.998764,247.223846 220.002884,245.433777 
z"/>
<path fill="#F77218" opacity="1.000000" stroke="none" 
	d="
M478.824158,238.766541 
	C479.029541,239.368515 479.009735,239.698746 478.990845,240.277588 
	C478.544861,240.646484 478.100830,240.766983 477.198181,240.698730 
	C476.492462,240.678711 476.245453,240.847412 475.998413,241.016098 
	C475.556183,241.348099 475.113983,241.680115 474.410522,242.102814 
	C473.833679,238.799179 475.609161,237.918716 478.824158,238.766541 
z"/>
<path fill="#F77218" opacity="1.000000" stroke="none" 
	d="
M501.431519,244.964264 
	C500.448792,244.448456 499.466064,243.932648 498.240356,243.187073 
	C500.272156,240.910538 501.355347,242.271530 501.917908,244.680679 
	C501.670746,244.946716 501.431519,244.964264 501.431519,244.964264 
z"/>
<path fill="#F77821" opacity="1.000000" stroke="none" 
	d="
M509.758942,251.300842 
	C508.885284,250.994965 508.064728,250.288239 507.097717,249.289124 
	C507.904846,249.631134 508.858429,250.265549 509.758942,251.300842 
z"/>
<path fill="#F77218" opacity="1.000000" stroke="none" 
	d="
M512.056702,253.920471 
	C511.530670,253.985550 511.278564,253.791351 511.039001,253.245148 
	C511.385406,253.269226 511.811768,253.525253 512.056702,253.920471 
z"/>
<path fill="#F86D0E" opacity="1.000000" stroke="none" 
	d="
M273.912537,213.785400 
	C273.633209,213.714935 273.627747,213.308807 273.748901,213.145798 
	C274.275391,213.116638 274.680725,213.250504 275.086029,213.384369 
	C274.787964,213.541534 274.489899,213.698700 273.912537,213.785400 
z"/>
<path fill="#DB661A" opacity="1.000000" stroke="none" 
	d="
M528.020874,269.338135 
	C528.170593,269.578186 528.302917,270.149109 528.204651,270.857300 
	C527.983826,270.552704 527.993713,270.110870 528.020874,269.338135 
z"/>
<path fill="#F77218" opacity="1.000000" stroke="none" 
	d="
M481.733154,239.025055 
	C481.715668,239.142990 481.444916,239.260818 481.074646,239.223236 
	C481.143341,239.053528 481.311615,239.039246 481.733154,239.025055 
z"/>
<path fill="#F77821" opacity="1.000000" stroke="none" 
	d="
M501.468994,245.102966 
	C501.431519,244.964264 501.670746,244.946716 501.789490,244.933105 
	C501.908264,244.919495 501.987457,245.119553 502.007935,245.224991 
	C502.028381,245.330429 501.748779,245.395325 501.748779,245.395325 
	C501.748779,245.395325 501.506439,245.241653 501.468994,245.102966 
z"/>
<path fill="#F86D0E" opacity="1.000000" stroke="none" 
	d="
M220.105896,267.205231 
	C220.324295,267.087280 220.581284,267.276031 220.880127,267.768188 
	C220.659683,267.891144 220.400513,267.704559 220.105896,267.205231 
z"/>
<path fill="#F86D0E" opacity="1.000000" stroke="none" 
	d="
M217.916031,279.850159 
	C217.992889,280.023621 217.495804,279.990051 217.248322,279.962402 
	C217.280289,279.848694 217.559738,279.762695 217.916031,279.850159 
z"/>
<path fill="#FE7218" opacity="1.000000" stroke="none" 
	d="
M241.130173,209.157532 
	C239.720566,209.126114 238.290054,209.064392 236.430084,209.001038 
	C238.767044,204.314346 243.455200,202.826599 248.516907,201.830002 
	C246.398941,203.707489 244.280991,205.584961 242.206589,207.823639 
	C242.250153,208.184830 242.192337,208.159897 241.937775,208.213654 
	C241.485153,208.577454 241.287094,208.887482 241.089020,209.197525 
	C241.089020,209.197525 241.109268,209.127258 241.130173,209.157532 
z"/>
<path fill="#F77218" opacity="1.000000" stroke="none" 
	d="
M220.716080,262.503998 
	C220.466034,262.272675 220.492020,261.850555 220.766129,261.212585 
	C221.006851,261.435577 220.999481,261.874390 220.716080,262.503998 
z"/>
<path fill="#F86D0E" opacity="1.000000" stroke="none" 
	d="
M241.356339,209.107071 
	C241.287094,208.887482 241.485153,208.577454 241.958252,208.189972 
	C242.030060,208.413879 241.826859,208.715240 241.356339,209.107071 
z"/>
<path fill="#FE7218" opacity="1.000000" stroke="none" 
	d="
M514.201904,257.281250 
	C514.462402,257.183105 514.685974,257.409332 514.879150,257.958557 
	C514.630005,258.048859 514.402161,257.823517 514.201904,257.281250 
z"/>
<path fill="#F77821" opacity="1.000000" stroke="none" 
	d="
M476.256897,241.025848 
	C476.245453,240.847412 476.492462,240.678711 476.853821,240.647583 
	C476.817200,240.868652 476.666321,240.952133 476.256897,241.025848 
z"/>
</svg>